<?xml version="1.0" encoding="utf-8"?>
<!-- Generator: Adobe Illustrator 27.5.0, SVG Export Plug-In . SVG Version: 6.00 Build 0)  -->
<svg version="1.1" id="_图层_1" xmlns="http://www.w3.org/2000/svg" xmlns:xlink="http://www.w3.org/1999/xlink" x="0px" y="0px"
	 viewBox="0 0 1600 250" style="enable-background:new 0 0 1600 250;" xml:space="preserve">
<style type="text/css">
	.st0{fill-rule:evenodd;clip-rule:evenodd;fill:url(#svg_2_00000146495912828301829620000000401036269380507817_);}
	.st1{fill-rule:evenodd;clip-rule:evenodd;fill:url(#svg_3_00000118373913328004984000000013244907601917810071_);}
	.st2{fill:#FFFFFF;}
	.st3{fill:url(#SVGID_1_);}
	.st4{fill:url(#SVGID_00000083084860486190717560000002226692072965646734_);}
	.st5{fill:url(#SVGID_00000076605581569180888150000004067048001789236381_);}
	.st6{fill:url(#SVGID_00000167392604267397322760000014233975330579338170_);}
	.st7{fill:url(#SVGID_00000158735745691296199420000017642556702768360874_);}
	.st8{fill:url(#SVGID_00000142862510960503037700000002269692582388825273_);}
	.st9{fill:url(#SVGID_00000034078251452542829690000001225132071790440880_);}
	.st10{fill:url(#SVGID_00000096027770914032607420000005175508386288467645_);}
	.st11{fill:url(#SVGID_00000036234333246790036350000007680787700978348195_);}
	.st12{fill:url(#SVGID_00000078040513894073369960000004554341920070516610_);}
</style>
<g>
	<g>
		<g id="svg_1">
			
				<linearGradient id="svg_2_00000154390962032594057990000017360801175462508708_" gradientUnits="userSpaceOnUse" x1="420.2701" y1="916.54" x2="539.6199" y2="1035.8899" gradientTransform="matrix(1 0 0 1 0 -822)">
				<stop  offset="0" style="stop-color:#5E72E4"/>
				<stop  offset="1" style="stop-color:#778AFF"/>
			</linearGradient>
			
				<path id="svg_2" style="fill-rule:evenodd;clip-rule:evenodd;fill:url(#svg_2_00000154390962032594057990000017360801175462508708_);" d="
				M433.1,89.2h93.6c10,0,18.2,8.2,18.2,18.2V201c0,10-8.2,18.2-18.2,18.2h-93.6c-10,0-18.2-8.2-18.2-18.2v-93.6
				C414.9,97.4,423.1,89.2,433.1,89.2z"/>
			
				<linearGradient id="svg_3_00000039118987648916814520000010710709222433833615_" gradientUnits="userSpaceOnUse" x1="414.94" y1="911.21" x2="414.94" y2="911.21" gradientTransform="matrix(1 0 0 1 0 -822)">
				<stop  offset="0" style="stop-color:#5E72E4"/>
				<stop  offset="1" style="stop-color:#778AFF"/>
			</linearGradient>
			
				<path id="svg_3" style="fill-rule:evenodd;clip-rule:evenodd;fill:url(#svg_3_00000039118987648916814520000010710709222433833615_);" d="
				M414.9,89.2"/>
		</g>
		<path id="svg_4" class="st2" d="M479.9,112.2c-23.8,0-43,19.3-43,43c0,16.4,9.2,30.7,22.7,37.9c3.5,1.9,7.8-0.1,8.8-3.9l2.2-9
			c0.8-3.2-0.5-6.4-3.1-8.4c-5.1-3.8-8.4-9.8-8.4-16.7c0-11.5,9.3-20.7,20.7-20.7c11.5,0,20.7,9.3,20.7,20.7
			c0,6.8-3.3,12.8-8.4,16.7c-2.6,1.9-3.9,5.2-3.1,8.4l2.2,9c1,3.8,5.2,5.8,8.8,3.9c13.6-7.2,22.7-21.5,22.7-38
			C523,131.5,503.7,112.2,479.9,112.2L479.9,112.2z"/>
	</g>
	<circle class="st2" cx="479.9" cy="156.2" r="9.3"/>
</g>
<g>
	<linearGradient id="SVGID_1_" gradientUnits="userSpaceOnUse" x1="643.7302" y1="194.5303" x2="643.7302" y2="128.9043">
		<stop  offset="0" style="stop-color:#5E72E4"/>
		<stop  offset="1" style="stop-color:#778AFF"/>
	</linearGradient>
	<path class="st3" d="M656.7,183h-25.9l-6.3,11.5h-16.4l35.7-65.6l35.6,65.6H663L656.7,183z M650.1,171.1l-6.3-11.5l-6.4,11.5H650.1
		z"/>
	
		<linearGradient id="SVGID_00000122690440477618304570000003483097855313733557_" gradientUnits="userSpaceOnUse" x1="693.6223" y1="194.5303" x2="693.6223" y2="145.9609">
		<stop  offset="0" style="stop-color:#5E72E4"/>
		<stop  offset="1" style="stop-color:#778AFF"/>
	</linearGradient>
	<path style="fill:url(#SVGID_00000122690440477618304570000003483097855313733557_);" d="M705.6,160c-0.8-0.5-1.7-0.8-3-0.9h-0.8
		c-3.7,0.2-5.6,2.7-5.6,7.8v27.6h-14.6v-27.6c0-13.3,6.7-20.3,20.2-20.9h0.8c1,0,2,0.1,3,0.3V160z"/>
	
		<linearGradient id="SVGID_00000168082363647061237050000007830184568676505504_" gradientUnits="userSpaceOnUse" x1="733.344" y1="221.1182" x2="733.344" y2="146.0068">
		<stop  offset="0" style="stop-color:#5E72E4"/>
		<stop  offset="1" style="stop-color:#778AFF"/>
	</linearGradient>
	<path style="fill:url(#SVGID_00000168082363647061237050000007830184568676505504_);" d="M758.8,171.3l0,24.7v3.4
		c0,6-2.1,11.1-6.4,15.4c-2,2-4.6,3.5-7.9,4.7c-3.1,1.1-6.2,1.6-9.2,1.6h-2.6c-6.9-0.2-12.5-2.3-16.6-6.3c-2.8-2.8-4.4-5.3-5-7.4
		l13.9-8.1c0.2,2.4,1.1,4.4,2.9,6.1c1.8,1.7,3.9,2.5,6.3,2.5c1.9,0,3.7-0.5,5.2-1.6c1.6-1.1,2.7-2.4,3.3-4.1l0-0.2l0.1-0.2
		c0.1-0.2,0.1-0.4,0.2-0.6c0.1-0.4,0.2-0.7,0.2-1.1v-0.1l0-0.1l0-0.2v-0.3h0v-4.8l-0.4,0.2l-0.4,0.1c-3,1.2-6.2,1.9-9.6,1.9
		c-4.4,0-8.6-1.1-12.5-3.3c-3.9-2.2-7-5.2-9.3-9.1c-2.3-3.9-3.5-8.2-3.5-13c0-3.6,0.7-7,2.1-10c1.3-3,3.2-5.7,5.6-8.1
		c2.3-2.2,5-4,8.1-5.2c3.1-1.2,6.3-1.9,9.5-1.9c5.7,0,9.9,0.7,12.6,2.2C754.5,151.9,758.8,159.6,758.8,171.3z M725.8,179.4
		c2.4,2.3,5.2,3.5,8.3,3.5c3.2,0,5.9-1.2,8.3-3.5c2.4-2.3,3.6-5.1,3.6-8.3c0-2.1-0.5-4-1.6-5.8c-1.1-1.8-2.6-3.3-4.4-4.3
		c-1.9-1-3.8-1.5-5.9-1.5c-2.1,0-4,0.5-5.8,1.5c-1.8,1-3.3,2.5-4.4,4.3c-1.1,1.8-1.6,3.8-1.6,5.8
		C722.2,174.3,723.4,177.1,725.8,179.4z"/>
	
		<linearGradient id="SVGID_00000067956245048588581400000003198093730834901387_" gradientUnits="userSpaceOnUse" x1="787.8428" y1="196.0352" x2="787.8428" y2="145.915">
		<stop  offset="0" style="stop-color:#5E72E4"/>
		<stop  offset="1" style="stop-color:#778AFF"/>
	</linearGradient>
	<path style="fill:url(#SVGID_00000067956245048588581400000003198093730834901387_);" d="M774.6,192.8c-4.1-2.2-7.4-5.2-9.9-9
		c-2.5-3.8-3.7-8.1-3.7-12.9c0-3.6,0.7-6.9,2.1-9.9c1.4-3.1,3.4-5.7,5.9-8c2.5-2.3,5.4-4,8.6-5.2c3.3-1.2,6.6-1.8,10.1-1.8
		c3.5,0,6.8,0.6,10.1,1.8c3.2,1.2,6.1,2.9,8.6,5.2c2.5,2.3,4.5,5,5.9,8c1.4,3.1,2.1,6.4,2.1,9.9c0,3.6-0.7,6.9-2.1,9.9
		c-1.4,3-3.4,5.7-5.9,8.1c-2.6,2.3-5.5,4.1-8.6,5.2c-3.2,1.2-6.6,1.9-10.1,1.9C783.2,196,778.8,194.9,774.6,192.8z M779.3,179.3
		c2.4,2.3,5.2,3.5,8.5,3.5c3.3,0,6.2-1.2,8.6-3.5c2.4-2.3,3.6-5.1,3.6-8.4c0-2.1-0.6-4.1-1.7-5.9c-1.1-1.8-2.6-3.2-4.5-4.3
		c-1.9-1.1-3.9-1.6-6-1.6c-2.1,0-4.1,0.5-6,1.6c-1.9,1.1-3.4,2.5-4.5,4.3c-1.1,1.8-1.7,3.8-1.7,5.9
		C775.6,174.2,776.9,177,779.3,179.3z"/>
	
		<linearGradient id="SVGID_00000178186217269972390570000013066427628216121735_" gradientUnits="userSpaceOnUse" x1="837.438" y1="194.5303" x2="837.438" y2="146.0068">
		<stop  offset="0" style="stop-color:#5E72E4"/>
		<stop  offset="1" style="stop-color:#778AFF"/>
	</linearGradient>
	<path style="fill:url(#SVGID_00000178186217269972390570000013066427628216121735_);" d="M837,159.2c-3.7,0.2-5.6,2.7-5.6,7.8v27.6
		h-14.6v-27.6c0-13.3,6.7-20.3,20.2-20.9h0.8c13.4,0.7,20.2,7.6,20.2,20.9v27.6h-14.6v-27.6c0-5-1.9-7.6-5.6-7.8H837z"/>
	
		<linearGradient id="SVGID_00000083086440619500206830000004577275091392857526_" gradientUnits="userSpaceOnUse" x1="914.5557" y1="196.0352" x2="914.5557" y2="129.8164">
		<stop  offset="0" style="stop-color:#5E72E4"/>
		<stop  offset="1" style="stop-color:#778AFF"/>
	</linearGradient>
	<path style="fill:url(#SVGID_00000083086440619500206830000004577275091392857526_);" d="M906.3,160.3h-9.6l3.3-12.5h6.3v-18
		l14.5,0.1v17.9h9.7l-3.2,12.5h-6.4v15.5c0,4.1,2.6,6.2,7.8,6.2c1.7,0,2.9-0.2,3.8-0.6l-4.2,14.5c-0.8,0.1-1.5,0.2-2.2,0.2
		c-4.3,0-8-0.7-10.9-2.1c-2.9-1.4-5.1-3.5-6.6-6.3c-1.5-2.8-2.2-6.4-2.2-10.7V160.3z"/>
	
		<linearGradient id="SVGID_00000179635551309374489130000008676461118174154164_" gradientUnits="userSpaceOnUse" x1="956.5815" y1="194.6211" x2="956.5815" y2="129.7705">
		<stop  offset="0" style="stop-color:#5E72E4"/>
		<stop  offset="1" style="stop-color:#778AFF"/>
	</linearGradient>
	<path style="fill:url(#SVGID_00000179635551309374489130000008676461118174154164_);" d="M949.3,129.8v20.8
		c1.4-1.4,3.1-2.6,5.2-3.4c2.1-0.8,4.2-1.2,6.4-1.2c11.7,0,17.6,6.9,17.6,20.6v28l-14.6,0v-27c0-2.8-0.6-4.9-1.9-6.3
		c-1.3-1.4-3.1-2.1-5.4-2.1c-2.2,0-4,0.7-5.3,2.1c-1.3,1.4-2,3.5-2,6.3v27l-14.6,0.1v-64.8L949.3,129.8z"/>
	
		<linearGradient id="SVGID_00000168838437911150022860000000312330742023998649_" gradientUnits="userSpaceOnUse" x1="1006.3584" y1="195.8984" x2="1006.3584" y2="146.0068">
		<stop  offset="0" style="stop-color:#5E72E4"/>
		<stop  offset="1" style="stop-color:#778AFF"/>
	</linearGradient>
	<path style="fill:url(#SVGID_00000168838437911150022860000000312330742023998649_);" d="M1029.9,161c1.4,3.1,2.1,6.4,2.1,9.9v0.4
		c0,0.2,0,0.3,0,0.5l-0.1,0.8h-5.7v0.1h-31.4c0.4,2.6,1.5,4.8,3.3,6.6c2.3,2.3,5.1,3.5,8.2,3.5c3.2,0,5.9-1.2,8.2-3.5l0.1-0.1
		l0.1-0.2l0.1-0.1l0.1-0.1l7.8,11.2c-2.2,1.8-4.5,3.2-6.8,4.2c-3.1,1.2-6.3,1.8-9.7,1.8c-4.5,0-8.7-1.1-12.6-3.2
		c-4-2.2-7.1-5.2-9.4-9c-2.4-3.8-3.6-8.1-3.6-12.8c0-3.6,0.7-6.8,2.1-9.9c1.4-3,3.3-5.7,5.7-7.9c2.4-2.3,5.2-4.1,8.2-5.2
		c3.1-1.2,6.4-1.8,9.7-1.8s6.6,0.6,9.7,1.8c3.1,1.2,5.8,2.9,8.3,5.2C1026.7,155.2,1028.6,157.9,1029.9,161z M1006.4,159.2
		c-2,0-4,0.5-5.7,1.6c-1.1,0.7-2.2,1.6-3.2,2.8h17.9c-1-1.2-2.1-2.2-3.2-2.8C1010.3,159.7,1008.4,159.2,1006.4,159.2z"/>
	
		<linearGradient id="SVGID_00000153677901476501356320000004242609051740334512_" gradientUnits="userSpaceOnUse" x1="1068.2681" y1="194.5762" x2="1068.2681" y2="146.0068">
		<stop  offset="0" style="stop-color:#5E72E4"/>
		<stop  offset="1" style="stop-color:#778AFF"/>
	</linearGradient>
	<path style="fill:url(#SVGID_00000153677901476501356320000004242609051740334512_);" d="M1075.6,165.8v28.7h-14.6v-28.7
		c-0.2-4.3-2.1-6.5-5.5-6.6h-0.8c-3.7,0.1-5.6,2.7-5.6,7.7v27.6h-14.6v-27.6c0-13.2,6.7-20.2,20.2-20.9h0.8
		c5.4,0.3,9.6,1.6,12.9,3.8c3.2-2.2,7.5-3.5,12.8-3.8h0.8c13.4,0.7,20.2,7.7,20.2,20.9v27.6h-14.6v-27.6c0-5-1.9-7.6-5.6-7.7h-0.8
		C1077.7,159.4,1075.8,161.6,1075.6,165.8z"/>
	
		<linearGradient id="SVGID_00000008833383101260182580000002070958030991822242_" gradientUnits="userSpaceOnUse" x1="1130.04" y1="195.8984" x2="1130.04" y2="146.0068">
		<stop  offset="0" style="stop-color:#5E72E4"/>
		<stop  offset="1" style="stop-color:#778AFF"/>
	</linearGradient>
	<path style="fill:url(#SVGID_00000008833383101260182580000002070958030991822242_);" d="M1153.6,161c1.4,3.1,2.1,6.4,2.1,9.9v0.4
		c0,0.2,0,0.3,0,0.5l-0.1,0.8h-5.7v0.1h-31.4c0.4,2.6,1.5,4.8,3.3,6.6c2.3,2.3,5.1,3.5,8.2,3.5c3.2,0,5.9-1.2,8.2-3.5l0.1-0.1
		l0.1-0.2l0.1-0.1l0.1-0.1l7.8,11.2c-2.2,1.8-4.5,3.2-6.8,4.2c-3.1,1.2-6.3,1.8-9.7,1.8c-4.5,0-8.7-1.1-12.6-3.2
		c-4-2.2-7.1-5.2-9.4-9c-2.4-3.8-3.6-8.1-3.6-12.8c0-3.6,0.7-6.8,2.1-9.9c1.4-3,3.3-5.7,5.7-7.9c2.4-2.3,5.2-4.1,8.2-5.2
		c3.1-1.2,6.4-1.8,9.7-1.8s6.6,0.6,9.7,1.8c3.1,1.2,5.8,2.9,8.3,5.2C1150.4,155.2,1152.2,157.9,1153.6,161z M1130,159.2
		c-2,0-4,0.5-5.7,1.6c-1.1,0.7-2.2,1.6-3.2,2.8h17.9c-1-1.2-2.1-2.2-3.2-2.8C1134,159.7,1132.1,159.2,1130,159.2z"/>
</g>
</svg>
