<?xml version="1.0" encoding="UTF-8"?>
<svg id="_图层_1" data-name="图层 1" xmlns="http://www.w3.org/2000/svg" xmlns:xlink="http://www.w3.org/1999/xlink" viewBox="0 0 1600 250">
  <defs>
    <style>
      .cls-1 {
        fill: url(#_未命名的渐变_12);
      }

      .cls-2 {
        fill: #fff;
      }

      .cls-3 {
        fill: url(#_未命名的渐变_2);
        fill-rule: evenodd;
      }
    </style>
    <linearGradient id="_未命名的渐变_2" data-name="未命名的渐变 2" x1="420.27" y1="155.57" x2="539.61" y2="36.23" gradientTransform="translate(0 250.11) scale(1 -1)" gradientUnits="userSpaceOnUse">
      <stop offset="0" stop-color="#5e72e4"/>
      <stop offset="1" stop-color="#778aff"/>
    </linearGradient>
    <linearGradient id="_未命名的渐变_12" data-name="未命名的渐变 12" x1="884.64" y1="209.16" x2="884.64" y2="129.16" gradientUnits="userSpaceOnUse">
      <stop offset="0" stop-color="#5e72e4"/>
      <stop offset="1" stop-color="#778aff"/>
    </linearGradient>
  </defs>
  <g>
    <path class="cls-3" d="m433.13,89.21h93.63c10.04,0,18.19,8.15,18.19,18.19v93.63c0,10.04-8.15,18.19-18.19,18.19h-93.63c-10.04,0-18.19-8.15-18.19-18.19v-93.63c0-10.04,8.15-18.19,18.19-18.19Z"/>
    <path class="cls-2" d="m479.94,102.7c-23.76,0-42.97,19.26-42.97,42.97,0,19.1,12.5,35.28,29.76,40.91l5.36-21.7c-7.58-3.08-12.88-10.5-12.88-19.21,0-11.47,9.31-20.73,20.73-20.73s20.73,9.31,20.73,20.73c0,8.66-5.3,16.07-12.88,19.21l5.36,21.7c17.26-5.57,29.76-21.75,29.76-40.91.05-23.7-19.21-42.97-42.97-42.97Z"/>
    <g>
      <path class="cls-2" d="m432.31,210.59c-1.24-.69-2.22-1.65-2.94-2.89s-1.09-2.63-1.09-4.17.36-2.93,1.09-4.16c.73-1.23,1.71-2.19,2.94-2.88,1.24-.69,2.6-1.03,4.08-1.03s2.84.34,4.08,1.03c1.24.69,2.21,1.65,2.92,2.88.71,1.23,1.07,2.61,1.07,4.16s-.36,2.93-1.08,4.17c-.72,1.24-1.69,2.2-2.92,2.89-1.23.69-2.58,1.03-4.07,1.03s-2.84-.34-4.08-1.03Zm7.1-3.73c.76-.84,1.13-1.95,1.13-3.33s-.38-2.51-1.13-3.34c-.76-.83-1.76-1.25-3.02-1.25s-2.29.41-3.04,1.24c-.76.82-1.13,1.94-1.13,3.35s.38,2.51,1.13,3.34c.76.83,1.77,1.25,3.04,1.25s2.27-.42,3.02-1.26Z"/>
      <path class="cls-2" d="m451.98,199.29c.66-.36,1.43-.54,2.31-.54,1.03,0,1.97.26,2.81.79.84.52,1.5,1.27,1.99,2.25.49.97.73,2.1.73,3.39s-.24,2.42-.73,3.4c-.49.98-1.15,1.74-1.99,2.27-.84.53-1.78.8-2.81.8-.87,0-1.64-.18-2.3-.54-.67-.36-1.19-.82-1.56-1.39v7.73h-3.84v-18.52h3.84v1.78c.37-.58.89-1.06,1.55-1.42Zm3.13,3.63c-.53-.55-1.19-.82-1.97-.82s-1.41.28-1.94.83c-.53.55-.8,1.31-.8,2.27s.27,1.72.8,2.27c.53.55,1.18.83,1.94.83s1.42-.28,1.96-.84c.54-.56.81-1.32.81-2.28s-.27-1.71-.8-2.26Z"/>
      <path class="cls-2" d="m473.6,206.12h-8.7c.06.78.31,1.38.75,1.79.44.41.98.62,1.63.62.96,0,1.63-.4,2-1.21h4.09c-.21.82-.59,1.57-1.13,2.22-.55.66-1.23,1.18-2.06,1.55-.82.37-1.75.56-2.76.56-1.23,0-2.32-.26-3.28-.79-.96-.52-1.71-1.27-2.25-2.25-.54-.97-.81-2.11-.81-3.42s.27-2.44.8-3.42c.53-.97,1.28-1.72,2.24-2.25.96-.52,2.06-.79,3.3-.79s2.29.26,3.24.76c.94.51,1.68,1.24,2.21,2.18.53.94.8,2.05.8,3.3,0,.36-.02.73-.07,1.12Zm-3.87-2.13c0-.66-.22-1.18-.67-1.57s-1.01-.58-1.69-.58-1.19.19-1.63.56c-.44.37-.72.91-.82,1.6h4.81Z"/>
      <path class="cls-2" d="m486.85,200.22c.88.95,1.31,2.26,1.31,3.92v7.33h-3.82v-6.81c0-.84-.22-1.49-.65-1.95s-1.02-.7-1.75-.7-1.32.23-1.75.7c-.43.46-.65,1.12-.65,1.95v6.81h-3.84v-12.54h3.84v1.66c.39-.55.91-.99,1.57-1.31.66-.32,1.4-.48,2.22-.48,1.47,0,2.64.48,3.52,1.43Z"/>
      <path class="cls-2" d="m512.54,195.69l-4.11,15.78h-4.65l-2.52-10.38-2.61,10.38h-4.65l-4-15.78h4.11l2.27,11.48,2.81-11.48h4.22l2.7,11.48,2.29-11.48h4.14Z"/>
      <path class="cls-2" d="m520,199.39c.67-.4,1.42-.6,2.25-.6v4.07h-1.06c-.96,0-1.68.21-2.16.62-.48.41-.72,1.13-.72,2.17v5.82h-3.84v-12.54h3.84v2.09c.45-.69,1.01-1.23,1.69-1.63Z"/>
      <path class="cls-2" d="m531.08,208.21v3.26h-1.96c-1.39,0-2.48-.34-3.26-1.02s-1.17-1.79-1.17-3.34v-4.99h-1.53v-3.19h1.53v-3.06h3.84v3.06h2.52v3.19h-2.52v5.03c0,.37.09.64.27.81.18.17.48.25.9.25h1.37Z"/>
    </g>
  </g>
  <path class="cls-1" d="m627.57,183.4h-23.52l-3.77,11.13h-16.07l22.8-63.01h17.77l22.8,63.01h-16.25l-3.77-11.13Zm-3.95-11.85l-7.81-23.07-7.72,23.07h15.53Zm52.96-25.27c2.69-1.58,5.68-2.38,8.98-2.38v16.25h-4.22c-3.83,0-6.7.82-8.62,2.47-1.92,1.65-2.87,4.53-2.87,8.66v23.25h-15.35v-50.08h15.35v8.35c1.8-2.75,4.04-4.92,6.73-6.51Zm44.65-.4c2.66,1.44,4.71,3.32,6.15,5.66v-7.09h15.35v50c0,4.61-.91,8.78-2.74,12.52-1.83,3.74-4.61,6.72-8.35,8.93-3.74,2.21-8.39,3.32-13.96,3.32-7.42,0-13.43-1.75-18.04-5.25-4.61-3.5-7.24-8.24-7.9-14.23h15.17c.48,1.91,1.62,3.42,3.41,4.53,1.79,1.11,4.01,1.66,6.64,1.66,3.17,0,5.7-.91,7.58-2.74,1.88-1.83,2.83-4.74,2.83-8.75v-7.09c-1.5,2.33-3.56,4.23-6.19,5.7-2.63,1.47-5.71,2.2-9.25,2.2-4.13,0-7.87-1.06-11.22-3.19-3.35-2.12-6-5.15-7.94-9.07-1.94-3.92-2.92-8.45-2.92-13.6s.97-9.66,2.92-13.55c1.94-3.89,4.59-6.88,7.94-8.98,3.35-2.09,7.09-3.14,11.22-3.14,3.53,0,6.63.72,9.29,2.15Zm2.96,14.54c-2.12-2.21-4.71-3.32-7.76-3.32s-5.64,1.09-7.76,3.28c-2.12,2.19-3.19,5.19-3.19,9.02s1.06,6.87,3.19,9.11c2.12,2.24,4.71,3.37,7.76,3.37s5.64-1.11,7.76-3.32c2.12-2.21,3.19-5.24,3.19-9.07s-1.06-6.85-3.19-9.07Zm39.22,31.68c-3.92-2.09-7-5.08-9.24-8.98-2.24-3.89-3.37-8.44-3.37-13.64s1.14-9.68,3.41-13.6c2.27-3.92,5.38-6.92,9.33-9.02,3.95-2.09,8.38-3.14,13.29-3.14s9.33,1.05,13.28,3.14c3.95,2.1,7.06,5.1,9.34,9.02,2.27,3.92,3.41,8.45,3.41,13.6s-1.15,9.68-3.46,13.6c-2.3,3.92-5.45,6.93-9.42,9.02-3.98,2.1-8.42,3.14-13.33,3.14s-9.32-1.05-13.24-3.14Zm20.73-13.37c2.06-2.15,3.1-5.24,3.1-9.25s-1-7.09-3.01-9.25c-2.01-2.15-4.47-3.23-7.4-3.23s-5.47,1.06-7.45,3.19c-1.98,2.12-2.96,5.22-2.96,9.29s.97,7.09,2.92,9.25c1.94,2.15,4.38,3.23,7.31,3.23s5.43-1.08,7.49-3.23Zm71.45-29.13c3.5,3.8,5.25,9.02,5.25,15.66v29.26h-15.26v-27.2c0-3.35-.87-5.95-2.6-7.81-1.74-1.85-4.07-2.78-7-2.78s-5.27.93-7,2.78c-1.74,1.86-2.6,4.46-2.6,7.81v27.2h-15.35v-50.08h15.35v6.64c1.55-2.21,3.65-3.96,6.28-5.25,2.63-1.29,5.59-1.93,8.89-1.93,5.86,0,10.55,1.9,14.05,5.7Zm62.88,31.91v13.01h-7.81c-5.56,0-9.9-1.36-13.01-4.08-3.11-2.72-4.67-7.17-4.67-13.33v-19.93h-6.1v-12.75h6.1v-12.21h15.35v12.21h10.05v12.75h-10.05v20.11c0,1.5.36,2.57,1.08,3.23.72.66,1.92.99,3.59.99h5.48Zm53.14-31.91c3.47,3.8,5.21,9.02,5.21,15.66v29.26h-15.26v-27.2c0-3.35-.87-5.95-2.6-7.81-1.74-1.85-4.07-2.78-7-2.78s-5.27.93-7,2.78c-1.74,1.86-2.6,4.46-2.6,7.81v27.2h-15.35v-66.42h15.35v23.07c1.55-2.21,3.68-3.98,6.37-5.3,2.69-1.32,5.71-1.97,9.07-1.97,5.74,0,10.35,1.9,13.82,5.7Zm62.83,23.56h-34.74c.24,3.11,1.24,5.49,3.01,7.14,1.76,1.65,3.93,2.47,6.51,2.47,3.83,0,6.49-1.62,7.99-4.85h16.34c-.84,3.29-2.35,6.25-4.53,8.89-2.18,2.63-4.92,4.7-8.21,6.19-3.29,1.5-6.97,2.24-11.04,2.24-4.91,0-9.28-1.05-13.1-3.14-3.83-2.09-6.82-5.08-8.98-8.98-2.15-3.89-3.23-8.44-3.23-13.64s1.06-9.75,3.19-13.64c2.12-3.89,5.1-6.88,8.93-8.98,3.83-2.09,8.23-3.14,13.19-3.14s9.16,1.02,12.93,3.05c3.77,2.04,6.72,4.94,8.84,8.71,2.12,3.77,3.19,8.17,3.19,13.19,0,1.44-.09,2.93-.27,4.49Zm-15.44-8.53c0-2.63-.9-4.73-2.69-6.28-1.8-1.56-4.04-2.33-6.73-2.33s-4.74.75-6.51,2.24c-1.77,1.5-2.86,3.62-3.28,6.37h19.21Zm102.55-15.08c3.68,3.77,5.52,9.01,5.52,15.71v29.26h-15.26v-27.2c0-3.23-.85-5.73-2.56-7.49-1.71-1.76-4.05-2.65-7.05-2.65s-5.34.88-7.05,2.65c-1.71,1.77-2.56,4.26-2.56,7.49v27.2h-15.26v-27.2c0-3.23-.85-5.73-2.56-7.49-1.71-1.76-4.05-2.65-7.05-2.65s-5.34.88-7.05,2.65c-1.71,1.77-2.56,4.26-2.56,7.49v27.2h-15.35v-50.08h15.35v6.28c1.55-2.09,3.59-3.75,6.1-4.98,2.51-1.23,5.35-1.84,8.53-1.84,3.77,0,7.14.81,10.1,2.42,2.96,1.62,5.28,3.92,6.96,6.91,1.74-2.75,4.1-5,7.09-6.73,2.99-1.74,6.25-2.6,9.78-2.6,6.22,0,11.17,1.88,14.85,5.66Zm63.23,23.61h-34.74c.24,3.11,1.24,5.49,3.01,7.14,1.76,1.65,3.93,2.47,6.51,2.47,3.83,0,6.49-1.62,7.99-4.85h16.34c-.84,3.29-2.35,6.25-4.53,8.89-2.18,2.63-4.92,4.7-8.21,6.19-3.29,1.5-6.97,2.24-11.04,2.24-4.91,0-9.28-1.05-13.1-3.14-3.83-2.09-6.82-5.08-8.98-8.98-2.15-3.89-3.23-8.44-3.23-13.64s1.06-9.75,3.19-13.64c2.12-3.89,5.1-6.88,8.93-8.98,3.83-2.09,8.23-3.14,13.19-3.14s9.16,1.02,12.93,3.05c3.77,2.04,6.72,4.94,8.84,8.71,2.12,3.77,3.19,8.17,3.19,13.19,0,1.44-.09,2.93-.27,4.49Zm-15.44-8.53c0-2.63-.9-4.73-2.69-6.28-1.8-1.56-4.04-2.33-6.73-2.33s-4.74.75-6.51,2.24c-1.77,1.5-2.86,3.62-3.28,6.37h19.21Z"/>
</svg>